<mxfile host="app.diagrams.net" modified="2024-01-22T04:16:34.925Z" agent="Mozilla/5.0 (Windows NT 10.0; Win64; x64) AppleWebKit/537.36 (KHTML, like Gecko) Chrome/120.0.0.0 Safari/537.36" version="22.1.21" etag="j5Ak_lu6OeIAzzvdnbGk" type="github">
  <diagram name="Page-1" id="_Pb69pES2891q3ZVovDL">
    <mxGraphModel>
      <root>
        <mxCell id="0" />
        <mxCell id="1" parent="0" />
      </root>
    </mxGraphModel>
  </diagram>
</mxfile>
